<svg width="163" height="165" viewBox="0 0 163 165" fill="none" xmlns="http://www.w3.org/2000/svg">
<path d="M161.08 82.37C161.08 110.77 146.22 135.7 123.84 149.87C127.36 142.78 129.37 134.73 129.37 126.17C129.37 119.46 128.14 113.06 125.87 107.17L146.19 84.13L119.37 95.16C110.56 83.06 96.74 75.27 81.17 75.27C65.6 75.27 51.75 83.09 42.94 95.23L16.2 84.52L36.52 107.13C34.25 113.01 33.02 119.44 33.02 126.17C33.02 134.72 35.03 142.83 38.55 149.91C16.18 135.74 1.32001 110.77 1.32001 82.37C1.32001 38.24 37.09 2.47 81.18 2.47C125.31 2.46 161.08 38.23 161.08 82.37Z" fill="white"/>
<path d="M81.6 110.74L46.04 96.5C54.14 86.53 66.88 80.13 81.2 80.13C95.49 80.13 108.21 86.53 116.31 96.46L81.6 110.74Z" fill="white"/>
<path d="M123.63 109.73L104.11 131.84L81.22 111.43L58.73 131.84L38.79 109.65C37.51 113.6 36.81 117.8 36.81 122.15C36.81 141.59 50.77 157.97 69.75 162.74L81.19 155.89L92.65 162.74C111.62 157.99 125.61 141.62 125.61 122.15C125.59 117.83 124.91 113.65 123.63 109.73ZM81.2 154.52L78.62 147.62L86.3 146.72L81.2 154.52ZM103.5 141.01C100.76 142.73 97.95 143.73 90.95 145.05C84.38 146.3 81.1 146.92 77.2 147.08C72.45 147.27 65.06 146.99 56.15 144.24L108.74 136.56C107.66 137.79 105.94 139.47 103.5 141.01Z" fill="white"/>
</svg>
